<svg xmlns="http://www.w3.org/2000/svg" viewBox="0 0 233.01 209.3"><defs><style>.cls-1{fill:#c19f3a;}</style></defs><title>Asset 16</title><g id="Layer_2" data-name="Layer 2"><g id="Layer_1-2" data-name="Layer 1"><path class="cls-1" d="M232,150.67,184,208.6a2,2,0,0,1-2.05.63c-7.55-1.77-50.09-14.21-70.87-42.69C88,134.91,66.72,116.15,62.41,113.35S18.53,99.42,0,73.31c0,0,8.47-19.36,30.05-43.8C48.34,8.8,53.72,1.83,54.93.19a.52.52,0,0,1,.75-.06c5.42,4.38,58.66,47,86.81,60.55,25,12,54.32,44.81,62.85,54.76q2.9,3.36,5.9,6.62l20.21,21.79A5.21,5.21,0,0,1,232,150.67Z"/></g></g></svg>