<svg xmlns="http://www.w3.org/2000/svg" viewBox="0 0 255.86 264.32"><defs><style>.cls-1{fill:#81c26b;}.cls-2{font-size:27.36px;font-family:SlimJoe, Slim Joe;}</style></defs><title>Asset 9</title><g id="Layer_2" data-name="Layer 2"><g id="Layer_1-2" data-name="Layer 1"><path class="cls-1" d="M254.91,190.87c-8.64,8.75-59.18,59.35-88,73.29a1.53,1.53,0,0,1-1.44,0C155.22,258.48,37.59,192,.28,90a4.7,4.7,0,0,1,.49-4.17C3.87,81.1,13,68.51,31.71,53.17A187.66,187.66,0,0,0,53.65,32L81.55.23s8.19-5.63,41.31,39.12c20.7,28,41.69,45.38,54.52,54.5a267.51,267.51,0,0,1,46.82,42c13.58,15.6,27,34.46,31.56,51.94A3.22,3.22,0,0,1,254.91,190.87Z"/><text class="cls-2" transform="matrix(0.71, 0.7, -0.7, 0.71, 53.81, 80.9)">references</text></g></g></svg>