<svg xmlns="http://www.w3.org/2000/svg" viewBox="0 0 218.05 258.62">
<defs>
<style>.cls-1{fill:#d2d058;}.cls-2{font-size:27.36px;font-family:SlimJoe, Slim Joe;}</style>
</defs>
<path class="cls-1" d="M49.21,44.6c2.4-3.47,4.7-7,6.86-10.65C63.42,21.6,83.26-6.41,108.44,1.33c32,9.86,98.57,49.29,98.57,49.29s17.25,6.16,8.63,23.41-69,134.32-69,134.32S134.31,219.44,106,231.76s-57.91,25.88-57.91,25.88S37,263.8,21,245.31,0,214.51,0,214.51a298.86,298.86,0,0,1,7.39-45.59C13.25,144.33,25.78,78.58,49.21,44.6Z"/>
<text class="cls-2" transform="translate(31.38 168.26) rotate(-24.96)">portfolio</text>
</svg>