<svg xmlns="http://www.w3.org/2000/svg" viewBox="0 0 284.8 215.59">
    <defs>
        <style>
        .cls-1{fill:#fecc3a;}.cls-2{font-size:27.36px;font-family:SlimJoe, Slim Joe;}
        </style>
    </defs>
    <title>Asset 3</title>
    <g id="Layer_2" data-name="Layer 2">
        <g id="Layer_1-2" data-name="Layer 1">
            <path class="cls-1" d="M.13,136.31a1.74,1.74,0,0,1,.09-1.51c3.43-6.19,29.6-49.26,98.18-58.4,73.93-9.86,92.42-46.83,92.42-46.83S209.3,3.7,243.8,0l37,72.82a33.34,33.34,0,0,1,3.43,11.53c2,18.87,2.15,72.41-55.21,95.55-66.65,26.9-162.15,34.93-171.73,35.68a2.91,2.91,0,0,1-1.48-.28l-11.49-5.51a51.54,51.54,0,0,1-25.9-28.25Z"/>
            <text class="cls-2" transform="translate(67.34 137.4)">about me</text>
        </g>
    </g>
</svg>