<svg xmlns="http://www.w3.org/2000/svg" viewBox="0 0 270.55 156.41"><defs><style>.cls-1{fill:#ec4c30;}.cls-2{font-size:27.36px;font-family:SlimJoe, Slim Joe;}.cls-3{letter-spacing:0.01em;}</style></defs><title>Asset 2</title><g id="Layer_2" data-name="Layer 2"><g id="Layer_1-2" data-name="Layer 1"><path class="cls-1" d="M7,132.81A8.63,8.63,0,0,1,.16,122.69L14.45,49.1a13.44,13.44,0,0,1,7.43-9.53L102,1.69A17.66,17.66,0,0,1,112.39.24L263.43,25a8.48,8.48,0,0,1,7,10l-15.63,80.26a10.19,10.19,0,0,1-7.07,7.8L139.52,155.43a23.44,23.44,0,0,1-11.07.56Z"/><text class="cls-2" transform="translate(36.46 97.99) rotate(-7.38)">s<tspan class="cls-3" x="14.34" y="0">o</tspan><tspan x="38.44" y="0">cial media</tspan></text></g></g></svg>